<svg width="20" height="17" viewBox="0 0 20 17" fill="none" xmlns="http://www.w3.org/2000/svg">
<path d="M11.3438 0.28488C10.9141 -0.101839 10.2695 -0.101839 9.88281 0.327849C9.49609 0.714568 9.49609 1.40207 9.92578 1.78879L15.6406 7.24582H1.03125C0.429688 7.24582 0 7.6755 0 8.27707C0 8.83566 0.429688 9.30832 1.03125 9.30832H15.6406L9.92578 14.7224C9.49609 15.1091 9.49609 15.7966 9.88281 16.1833C10.2695 16.613 10.9141 16.613 11.3438 16.2263L18.9062 9.00754C19.1211 8.79269 19.207 8.53488 19.207 8.27707C19.207 7.97629 19.1211 7.71847 18.9062 7.50363L11.3438 0.28488Z" fill="black"/>
</svg>
