<svg width="53" height="59" viewBox="0 0 53 59" fill="none" xmlns="http://www.w3.org/2000/svg">
<path d="M51.7322 36.1797C52.6755 35.3711 52.6755 34.0234 51.8669 33.2148C51.0583 32.2715 49.7107 32.2715 48.9021 33.0801L28.6873 51.2734V2.21875C28.6873 1.14062 27.7439 0.0625 26.531 0.0625C25.4529 0.0625 24.3748 1.14062 24.3748 2.21875V51.2734L4.29467 33.0801C3.48608 32.2715 2.13842 32.2715 1.32983 33.2148C0.521236 34.0234 0.521236 35.3711 1.4646 36.1797L25.1833 57.7422C25.5876 58.1465 26.1267 58.2812 26.531 58.2812C27.0701 58.2812 27.6091 58.1465 28.0134 57.7422L51.7322 36.1797Z" fill="white"/>
</svg>
