<svg width="188" height="59" viewBox="0 0 188 59" fill="none" xmlns="http://www.w3.org/2000/svg">
<path d="M28.2048 2.13672C13.7047 2.13672 1.91724 13.9264 1.91724 28.4272C1.91724 37.6129 6.61982 45.6889 13.7615 50.3963V35.0096H11.1051V45.5243C9.83563 43.9736 8.50459 42.0399 7.39804 40.1572C5.40477 36.6703 4.35434 32.8513 4.35434 28.4269C4.35434 15.1424 15.0329 4.35086 28.2061 4.35086C41.3783 4.35086 52.0591 15.1424 52.0591 28.4269C52.0591 32.8513 50.9518 36.6687 48.9555 40.2143C47.9043 42.0401 46.5209 43.9736 45.2514 45.5243V35.0096H42.6489V50.3995C49.789 45.6921 54.4932 37.6133 54.4932 28.4275C54.4932 13.9245 42.7048 2.13704 28.2056 2.13704L28.2048 2.13672ZM108.835 3.52345L105.35 4.24084V5.18036L106.899 5.51353V22.3911L105.293 22.7213V23.8319H110.882V22.6703L109.555 22.3911V13.4794C110.328 12.8155 111.106 12.2637 112.158 12.2637C113.707 12.2637 113.706 13.8691 113.706 14.9772V22.4483L112.38 22.7245V23.8351H117.915V22.6734L116.474 22.3943V13.7046C116.474 11.7113 115.368 10.2738 113.152 10.2738C111.661 10.2738 110.55 11.1021 109.556 11.8767V3.52329H108.835L108.835 3.52345ZM132.688 3.52345C131.747 3.52345 130.917 4.297 130.917 5.29434C130.915 6.28714 131.748 7.06233 132.745 7.06233C133.686 7.06233 134.513 6.28717 134.513 5.29434C134.513 4.29693 133.684 3.52345 132.688 3.52345H132.688ZM71.3723 4.62507C70.1536 4.62507 68.9905 4.79015 67.7734 4.79015H64.3997V5.95479L66.2817 6.28496V22.391L64.3997 22.7211V23.8287H67.6054C68.2709 23.8287 71.2576 23.8827 71.8678 23.8827C73.42 23.8843 76.0215 23.9408 77.5137 21.3973C77.9025 20.6766 78.1814 19.7906 78.123 18.7409C78.123 17.4116 77.6783 16.195 76.7393 15.1959C75.8541 14.2569 74.8576 13.9239 73.7526 13.7011C75.1342 13.0925 77.0723 11.8199 77.0723 9.16279C77.0723 8.11159 76.6315 6.95053 75.9107 6.12219C74.5276 4.62376 72.4219 4.62438 71.3724 4.62438L71.3723 4.62507ZM70.874 5.84373C71.8684 5.84373 73.8607 6.28933 73.8607 9.49685C73.8607 13.0961 71.7039 13.2068 70.4299 13.2068H69.0492V6.17709C69.7131 5.95732 70.0996 5.84392 70.8741 5.84392L70.874 5.84373ZM28.2048 7.83684L20.1783 14.0894L21.6191 15.9745L28.2047 10.8808L34.7932 15.9745L36.228 14.0894L28.2047 7.83684H28.2048ZM86.0383 9.99502C82.1638 9.99502 80.5603 13.9796 80.5603 17.2499C80.5603 21.564 82.884 24.1086 85.8731 24.1086C88.8069 24.1086 91.4622 21.618 91.4622 16.9137C91.4622 10.8802 87.6425 9.9947 86.0383 9.9947V9.99502ZM98.8223 10.0491C94.8358 10.0491 93.7857 14.3124 93.7857 17.4092C93.7857 21.3957 95.5011 24.1087 98.7655 24.1087C101.31 24.1117 102.42 23.0562 103.526 20.9L102.311 20.3987C101.757 21.2839 100.981 22.1667 99.8162 22.1667C97.1053 22.1667 96.6626 19.07 96.5536 16.8539H103.58C103.527 13.5912 102.915 10.0491 98.8229 10.0491L98.8223 10.0491ZM157.753 10.0521C155.096 10.0521 152.996 11.8796 152.996 14.6475C152.996 16.9712 154.374 17.9124 155.262 18.4655C153.82 19.3507 152.719 20.2899 152.719 21.3411C152.719 22.2832 153.385 22.8354 154.268 23.112C153.328 23.7774 152.167 24.6043 152.167 25.9905C152.167 28.0375 154.71 28.8119 157.036 28.8119C161.294 28.8119 163.679 26.7089 163.679 24.1655C163.679 21.7296 162.235 20.9009 159.858 20.8458L156.316 20.7317C156.095 20.7317 155.373 20.5681 155.373 20.1224C155.373 19.7904 155.872 19.3496 156.373 18.9607C156.871 19.0714 157.478 19.1829 157.976 19.1829C159.912 19.1829 162.568 17.7997 162.568 14.6984C162.568 13.595 162.182 12.8733 161.575 11.985L163.787 12.045V10.3851L160.632 10.4931C159.693 10.4931 158.75 10.0519 157.754 10.0519L157.753 10.0521ZM170.648 10.0521C166.663 10.0521 165.614 14.3138 165.614 17.4122C165.614 21.3987 167.328 24.1088 170.594 24.1088C173.138 24.1088 174.245 23.0547 175.352 20.9001L174.136 20.3988C173.584 21.2856 172.808 22.1697 171.645 22.1697C168.931 22.1697 168.491 19.0697 168.379 16.8598H175.408C175.353 13.5971 174.743 10.0521 170.648 10.0521V10.0521ZM141.427 10.1601L137.996 11.0486V12.1562L139.602 12.3212V22.3947L137.996 22.7249V23.8325H143.696V22.6709L142.312 22.3947V13.372C143.033 12.708 143.862 12.1023 144.858 12.1023C146.408 12.1023 146.409 13.7061 146.409 14.3685V22.4489L144.969 22.7251V23.8327H150.558V22.671L149.117 22.3949V13.7052C149.117 11.5459 148.013 10.2173 145.746 10.2173C144.306 10.2173 143.199 10.9963 142.201 11.8262V10.1603L141.427 10.1601ZM181.327 10.1631L177.953 11.0456V11.9341L179.559 12.2132V22.3948L177.953 22.725V23.8326H184.094V22.6679L182.158 22.3918V15.143C182.158 14.6973 182.765 13.3162 183.872 12.8167L185.31 13.5941C185.752 13.2053 186.366 12.7611 186.366 11.9313C186.366 10.8278 185.646 10.3283 184.757 10.3283C183.597 10.3283 182.989 11.2163 182.101 12.7116V10.1633H181.327L181.327 10.1631ZM123.39 10.1661L120.017 11.0486V11.9341L121.619 12.2132V22.3948L120.017 22.725V23.8356H126.158V22.671L124.222 22.3918V15.1459C124.222 14.6987 124.886 13.3162 125.993 12.8167L127.433 13.5911C127.821 13.2023 128.482 12.7627 128.427 11.9312C128.427 10.8262 127.708 10.3283 126.878 10.3283C125.718 10.3283 125.053 11.2178 124.168 12.7116V10.1663H123.39L123.39 10.1661ZM133.629 10.2742L130.144 11.1567V12.0962L131.581 12.4323V22.3948L130.144 22.725V23.8326H135.847V22.671L134.295 22.3948V10.2743H133.628L133.629 10.2742ZM157.698 11.2707C159.469 11.2707 159.637 13.2617 159.637 14.7586C159.637 16.1417 159.412 17.8562 157.806 17.8562C156.093 17.8562 155.87 16.0317 155.87 14.5365C155.87 13.1518 155.982 11.2706 157.698 11.2706L157.698 11.2707ZM86.0916 11.3247C88.0818 11.3247 88.4718 14.5883 88.4718 16.8567C88.4718 18.6286 88.253 22.7249 85.8724 22.7249C84.3233 22.7249 83.4922 20.5653 83.4922 17.2982C83.4922 15.7521 83.6004 11.3251 86.0916 11.3251V11.3247ZM98.8755 11.3788C100.537 11.3788 100.707 13.8672 100.761 15.5302H96.5524C96.7184 13.8673 97.1053 11.3788 98.8756 11.3788H98.8755ZM170.702 11.3788C172.363 11.3788 172.529 13.8733 172.584 15.5302H168.376C168.545 13.8734 168.928 11.3788 170.702 11.3788H170.702ZM69.0471 14.5334H70.2628C72.1454 14.5334 74.9693 14.8145 74.9693 18.5735C74.9676 20.0135 74.4695 21.3974 73.2523 22.0614C72.5331 22.5024 71.5927 22.7247 70.815 22.7247C70.0958 22.7247 69.545 22.6169 69.047 22.2865V14.5333L69.0471 14.5334ZM26.8749 17.9071V54.6577C27.3191 54.6577 27.759 54.7147 28.2047 54.7147C28.6458 54.7147 29.0916 54.6577 29.4774 54.6577V17.9071H26.8749H26.8749ZM21.6192 17.9101V53.8797C22.5582 54.1579 23.3365 54.3229 24.2217 54.432V17.9073H21.6192V17.9101ZM32.131 17.9101V54.4929C33.0162 54.3269 33.9589 54.1064 34.7334 53.8836V17.9139H32.131V17.9101ZM155.814 23.3368C158.637 23.5028 159.798 23.6661 160.737 23.8321C161.29 23.9412 161.679 24.2167 161.679 25.1588C161.679 26.376 159.908 27.317 157.639 27.317C155.98 27.317 154.761 26.6521 154.761 25.435C154.761 24.3869 155.315 23.8348 155.814 23.3369L155.814 23.3368ZM115.752 31.7474L112.268 32.5218V33.4613L113.816 33.6294V50.6729L112.211 51.0061V52.1136H117.914V50.9491L116.473 50.6189V31.7482H115.752L115.752 31.7474ZM123.557 31.7474L120.069 32.5218V33.4613L121.618 33.7405V50.6765L120.015 51.0066V52.1142H125.658V50.9556L124.274 50.6224V41.7646C125.05 41.1007 125.827 40.4919 126.876 40.4919C128.481 40.4919 128.425 42.0973 128.425 43.2053V50.7304L127.098 51.0065V52.1141H132.634V50.9555L131.193 50.6223V41.9326C131.193 39.9378 130.088 38.5557 127.927 38.5557C126.433 38.5557 125.268 39.3287 124.274 40.1586V31.7481H123.557L123.557 31.7474ZM149.617 31.7474C148.678 31.7474 147.792 32.5765 147.792 33.5724C147.792 34.5129 148.621 35.3432 149.617 35.3432C150.556 35.3432 151.334 34.5127 151.334 33.5152C151.334 32.5762 150.613 31.7472 149.617 31.7472V31.7474ZM64.5043 33.0201V34.2357L66.2783 34.5119V50.6727L64.5074 51.0059V52.1135H70.8138V50.9488L69.2109 50.6187V34.512L70.8709 34.1789V33.0202H64.5044L64.5043 33.0201ZM16.3587 35.0101V51.8877C17.187 52.3334 18.0759 52.7219 18.9581 53.0523V35.0101H16.3587V35.0101ZM37.3886 35.0101V53.1095C38.2723 52.7222 39.1629 52.3335 40.0481 51.8878V35.0106H37.3886V35.0101ZM92.621 38.3299C90.5463 38.3299 88.8108 39.4447 88.1518 41.2474H88.1485C87.9625 41.7545 87.8603 42.3182 87.8603 42.9284C87.8603 45.2521 89.2429 46.1331 90.1265 46.6864C88.6911 47.5731 87.6382 48.5678 87.6382 49.619C87.6382 50.5057 88.2465 51.0626 89.1871 51.3899C88.1912 52 87.032 52.8837 87.032 54.2683C87.032 56.3185 89.5769 57.0898 91.9007 57.0898C96.1638 57.0898 98.5435 54.9882 98.5435 52.3863C98.5435 50.0088 97.1044 49.2296 94.7254 49.1204L91.1804 48.9553C90.9576 48.9553 90.2409 48.8472 90.2409 48.4C90.2409 48.0143 90.7397 47.5733 91.2945 47.1814C91.7924 47.3489 92.3485 47.4065 92.8433 47.4065C94.7813 47.4065 97.4359 46.0786 97.4359 42.9249C97.4359 42.2779 97.2902 41.7573 97.0366 41.247C96.8768 40.9228 96.6775 40.6097 96.4393 40.2655L98.7086 40.3225V38.6597L95.4999 38.7707C94.5563 38.7736 93.6172 38.3295 92.6214 38.3295L92.621 38.3299ZM105.513 38.3299C101.528 38.3299 100.479 42.5945 100.479 45.6929C100.479 49.6794 102.192 52.3866 105.456 52.3866C108.003 52.3866 109.112 51.3371 110.22 49.1809L109.001 48.6797C108.448 49.5634 107.672 50.4506 106.51 50.4506C103.797 50.4506 103.353 47.3508 103.244 45.1377H110.271C110.219 41.8735 109.606 38.3301 105.513 38.3301L105.513 38.3299ZM139.769 38.3299C135.786 38.3299 134.733 42.5945 134.733 45.6929C134.733 49.6794 136.45 52.3866 139.715 52.3866C142.259 52.3866 143.368 51.3371 144.476 49.1809L143.257 48.6797C142.704 49.5634 141.926 50.4506 140.766 50.4506C138.055 50.4506 137.609 47.3508 137.5 45.1377H144.527C144.475 41.8735 143.863 38.3301 139.769 38.3301L139.769 38.3299ZM158.359 38.3869L154.871 39.2694V40.2089L156.474 40.4881V50.6697L154.871 51.0028V52.1104H160.457V50.9488L159.19 50.6186V41.7037C159.854 41.0951 160.57 40.434 161.787 40.434C163.17 40.434 163.504 41.7061 163.504 42.7572V50.6695L161.955 51.0027V52.1102H167.487V50.9486L166.157 50.6184V41.7606C166.933 41.0398 167.656 40.4339 168.762 40.4339C170.256 40.4339 170.365 41.9824 170.365 42.7032V50.6694L168.928 51.0055V52.1131H174.682V50.9485L173.13 50.6183V41.8715H173.132C173.132 39.66 171.75 38.5517 169.644 38.5517C168.095 38.5517 166.934 39.3285 165.883 40.3798C165.333 39.2164 164.113 38.6058 162.786 38.6058C161.458 38.6058 160.184 39.2144 159.076 40.2088V38.3868H158.358L158.359 38.3869ZM76.3476 38.3898L72.9168 39.2723V40.3829L74.5226 40.602V50.6784L72.9168 51.0086V52.1162H78.6169V50.9516L77.1761 50.6215V41.6016C77.319 41.4787 77.4593 41.3611 77.6053 41.2504C78.2616 40.7509 78.9624 40.3829 79.7786 40.3829C80.5562 40.3829 80.9432 40.7724 81.1353 41.2534C81.3289 41.7329 81.3304 42.2911 81.3304 42.6492V50.7296L79.8866 51.0087V52.1163H85.4815V50.9517L84.0407 50.6215V41.9289C84.0407 41.6938 84.0264 41.4657 83.9987 41.2505C83.7804 39.5339 82.6833 38.444 80.6637 38.444C79.2283 38.444 78.1177 39.2753 77.122 40.0498V38.3898H76.3475L76.3476 38.3898ZM150.504 38.5519L147.013 39.4374V40.3258L148.454 40.653V50.6694L147.013 51.0055V52.1131H152.659V50.9485L151.164 50.6183V38.5517H150.504L150.504 38.5519ZM92.5639 39.4945C93.6689 39.4945 94.1691 40.2869 94.3889 41.2505H94.3922C94.5275 41.8345 94.5573 42.474 94.5573 43.0365C94.5573 44.3627 94.3351 46.1341 92.6722 46.1341C90.9571 46.1341 90.7931 44.2527 90.7931 42.8143C90.7931 42.3241 90.8061 41.7623 90.8952 41.2475H90.8985C91.063 40.3024 91.4917 39.4946 92.5644 39.4946L92.5639 39.4945ZM105.57 39.6596C107.23 39.6596 107.398 42.1496 107.452 43.811H103.244C103.41 42.1497 103.796 39.6596 105.57 39.6596H105.57ZM139.826 39.6596C141.489 39.6596 141.653 42.1496 141.711 43.811H137.503C137.669 42.1497 138.057 39.6596 139.826 39.6596H139.826ZM90.6831 51.6152C93.5063 51.7811 94.6712 51.8907 95.6116 52.1104C96.1649 52.2195 96.6052 52.4966 96.6052 53.4371C96.6052 54.6558 94.8349 55.5953 92.5651 55.5953C90.9069 55.5953 89.6866 54.8782 89.6866 53.7133C89.6866 52.6667 90.1883 52.0548 90.6832 51.6152L90.6831 51.6152Z" fill="black"/>
</svg>
