<svg viewBox="23" fill="none" xmlns="http://www.w3.org/2000/svg">
<path d="M139.196 22.536H129.749V21.1772H132.567V1.82277H129.749V0.463975H138.811C143.422 0.463975 145.76 2.48559 145.76 6.19741C145.76 8.88185 144.575 10.5721 141.885 11.2017C145.152 11.7651 146.753 13.7868 146.753 16.8357C146.785 20.2161 144.735 22.536 139.196 22.536ZM138.523 1.82277H134.168V10.5058H138.715C142.334 10.5058 144.127 9.11384 144.127 6.32997C144.127 3.41355 142.558 1.82277 138.523 1.82277ZM139.068 21.1772C143.262 21.1772 145.12 19.5533 145.12 16.67C145.12 13.4885 142.942 11.8646 138.876 11.8646H134.168V21.1772H139.068Z" fill="white"/>
<path d="M148.61 22.536V21.1772H150.787L158.28 0.463975H160.234L167.823 21.1772H170V22.536H162.571V21.1772H166.093L163.916 15.1787H154.566L152.42 21.1772H155.783V22.536H148.61ZM155.014 13.8862H163.436L159.209 2.22047L155.014 13.8862Z" fill="white"/>
</svg>
