<svg width="87" height="69" viewBox="0 0 87 69" fill="none" xmlns="http://www.w3.org/2000/svg">
<g clip-path="url(#clip0_1125_5748)">
<path d="M17.2155 61.2913V55.4858C20.8321 55.4858 22.1645 55.2954 22.8307 59.7686H23.2114V54.8196H13.2183V55.4858H14.9314V68.3341H13.0279V69.0003H23.3066V63.7658H22.8307C22.3548 67.763 21.3079 68.3341 18.4528 68.3341H17.1204V62.1479H17.8817C19.119 62.1479 19.8804 62.9092 20.1659 65.0982H20.6417V58.6265H20.1659C20.1659 58.6265 20.0707 61.3865 17.8817 61.3865H17.2155V61.2913ZM13.1231 61.4817H7.50794V62.1479H9.41138V66.7161C9.12587 67.8582 7.31759 68.3341 6.84173 68.3341C3.22518 68.3341 3.5107 63.0996 3.5107 61.672C3.5107 60.4348 3.41552 55.0099 6.84173 55.0099C9.31621 55.0099 10.5535 57.3892 11.0293 59.5782H11.41V54.4389C11.41 54.4389 9.6969 55.6761 9.6969 55.581C9.6969 55.581 8.93552 54.4389 6.74656 54.4389C2.55897 54.4389 0.94104 58.6265 0.94104 61.5768C0.94104 64.2417 2.17828 68.9051 6.74656 68.9051C8.17414 68.9051 9.12587 68.1437 9.6969 67.3823L11.5052 68.8099V62.0527H13.0279V61.4817H13.1231ZM78.6969 63.6706C78.221 67.6679 77.1741 68.2389 74.319 68.2389H74.1286V55.4858H75.9369V54.8196H70.0362V55.4858H71.8445V68.3341H70.4169L65.1824 54.4389H64.421C64.421 54.4389 60.0431 67.0017 60.0431 67.0968C60.0431 67.0968 59.7576 68.1437 58.9962 68.3341C58.33 68.3341 58.4252 68.0486 58.4252 67.8582V65.3837C58.4252 64.7175 58.33 63.2899 57.759 62.6237C56.9976 61.8623 55.7603 61.8623 55.7603 61.7672C55.7603 61.7672 58.9962 61.101 58.9962 58.0555C58.9962 55.8665 57.4735 54.8196 54.999 54.7244H47.9562V55.3906H49.7645V68.2389H47.9562V68.9051H53.7617V68.2389H51.9535V62.0527H54.3328C58.5204 62.4334 53.5714 68.9051 59.0914 68.9051H62.5176V68.2389C62.3272 68.2389 61.09 68.2389 60.9948 67.3823C60.8997 66.7161 61.8514 64.432 61.8514 64.432H66.61C66.61 64.432 68.0376 68.2389 68.1328 68.2389H66.5148V68.9051H79.3631V63.6706H78.6969ZM54.2376 61.3865H51.9535V55.4858H54.9038C56.6169 55.7713 56.7121 57.7699 56.7121 58.341C56.7121 59.8637 56.0459 61.3865 54.2376 61.3865ZM62.2321 63.861L64.3259 57.7699L66.5148 63.861H62.2321ZM40.9135 55.3906C44.53 55.3906 45.9576 55.2003 46.5286 59.6734H46.9093V54.7244H32.4431V55.3906H32.8238C33.2997 55.3906 34.5369 55.3906 34.6321 56.5327V64.7175L27.8748 54.7244H24.1631V55.3906H24.7341C25.4955 55.3906 26.4472 55.3906 26.5424 56.5327V67.0017C26.5424 68.0486 25.0197 68.4292 24.3535 68.4292V68.9051H29.3976V68.4292C28.7314 68.4292 27.2086 68.0486 27.2086 67.0017V57.7699C29.8735 61.5768 34.9176 68.9051 35.0128 68.9051H35.2983V56.5327C35.3935 55.4858 36.5355 55.3906 37.1066 55.3906H38.7245V68.2389H36.821V68.9051H47.0997V63.6706H46.6238C46.1479 67.6679 45.101 68.2389 42.2459 68.2389H40.9135V62.0527H41.6748C42.9121 62.0527 43.6735 62.8141 43.959 65.003H44.4348V58.5313H43.959C43.959 58.5313 43.8638 61.2913 41.6748 61.2913H41.0086V55.3906H40.9135ZM79.9341 54.7244V55.4858H81.7424V68.2389H79.9341V68.9051H85.7397V68.2389H83.8362V55.4858H85.7397V54.7244H79.9341ZM70.4169 45.9686L72.2252 45.3023C74.7948 44.2554 75.1755 43.5892 74.9852 41.8761V35.0237C76.8886 39.9727 78.7921 43.3989 82.5038 43.3989C82.9797 43.3989 83.5507 43.3037 84.1217 43.2086L85.5493 42.923L84.5024 41.781C83.8362 41.1148 83.5507 40.5437 83.17 39.8775C82.9797 39.592 82.8845 39.3065 82.6941 39.021C81.8376 37.5934 79.7438 37.1175 78.0307 37.8789C77.2693 36.3561 76.5079 34.3575 75.5562 31.883L75.3659 31.4072C75.1755 31.0265 75.0804 30.6458 74.89 30.2651V30.1699C74.319 28.8375 73.6528 27.6003 72.9866 26.363C72.3204 25.221 71.6541 24.2692 70.8928 23.4127C68.8941 21.1286 66.3245 19.701 63.1838 19.1299C60.9948 18.7492 59.4721 18.6541 57.4735 18.5589C57.0928 18.5589 56.6169 18.5589 56.2362 18.4637C55.3797 18.3686 53.5714 18.2734 51.7631 18.083C50.5259 17.9879 49.3838 17.8927 48.4321 17.7975C48.5272 17.512 48.5272 17.2265 48.5272 16.941C48.5272 16.5603 48.5272 16.1796 48.4321 15.8941H60.9948C64.2307 15.8941 66.61 14.4665 67.9424 11.6113C71.1783 11.6113 73.4624 10.0886 74.89 7.32855H75.3659C78.6969 7.32855 81.0762 5.8058 82.5038 2.76028L82.9797 1.90373H40.5328C37.7728 1.90373 35.3935 3.712 34.4417 6.56718V6.66235C33.6804 4.66373 32.4431 2.95062 30.73 1.90373C28.3507 0.476142 25.6859 0.000279754 23.5921 0.666487C22.9259 0.856831 22.1645 1.14235 21.5935 1.52304C21.1176 1.90373 20.3562 2.37959 19.8804 3.0458C19.3093 3.712 18.8335 4.56855 18.4528 5.32993C18.1672 5.52028 17.9769 5.71062 17.8817 5.90097L17.4059 6.85269V6.94787C16.8348 8.28028 16.0735 9.232 15.5024 9.99338C14.9314 10.6596 14.9314 11.3258 14.9314 11.7065C15.0266 12.1823 15.2169 12.563 15.5024 12.8486C15.3121 13.1341 15.2169 13.5148 15.2169 13.8003C15.2169 14.9423 16.1686 15.7989 17.4059 15.7989C18.2624 15.7989 19.0238 15.4182 19.7852 14.8472C20.0707 14.6568 20.9272 14.0858 21.2128 14.0858C21.5935 14.0858 21.879 14.3713 21.879 14.752C21.879 15.7037 20.7369 16.1796 19.8804 16.1796L18.1672 16.3699C16.93 16.4651 16.359 17.1313 16.359 17.7023C16.359 18.2734 16.6445 18.6541 16.8348 18.8444L16.93 18.9396L17.4059 19.3203L15.4072 22.3658C14.0748 21.1286 12.5521 20.4623 11.2197 20.3672C10.3631 20.3672 9.60173 20.5575 9.0307 21.1286C8.84035 21.3189 8.74518 21.4141 8.65001 21.6044C7.22242 21.6044 6.08035 22.3658 5.50932 23.2223C4.84311 24.1741 5.12863 25.792 5.89001 27.0292L1.13138 28.3617V50.4417H85.8348V46.0637H70.4169V45.9686ZM81.3617 39.9727C81.5521 40.2582 81.6472 40.5437 81.8376 40.7341C82.0279 41.0196 82.2183 41.3051 82.4086 41.6858C81.0762 41.5906 80.0293 40.8292 79.1728 39.4968C79.9341 39.1161 80.981 39.4017 81.3617 39.9727ZM62.9935 21.1286C65.7535 21.6044 67.9424 22.8417 69.6555 24.7451C70.0362 25.1258 70.3217 25.6017 70.7024 26.0775C66.1341 25.5065 64.5162 24.8403 61.9466 20.9382C62.3272 20.9382 62.6128 21.0334 62.9935 21.1286ZM60.9948 14.4665H52.3341C53.0955 13.8003 53.6666 12.9437 54.1424 11.992H65.8486C64.8969 13.7051 63.279 14.4665 60.9948 14.4665ZM67.8473 10.2789H59.1866C59.9479 9.61269 60.6141 8.75614 61.09 7.70924H72.7962C71.8445 9.42235 70.2266 10.2789 67.8473 10.2789ZM68.5135 3.712H80.1245C78.9824 5.23476 77.4597 5.99614 75.2707 5.99614H66.61C67.3714 5.32993 68.0376 4.56856 68.5135 3.712ZM21.3079 4.09269C21.5935 3.712 22.0693 3.33131 22.5452 2.95062C22.9259 2.66511 23.4969 2.37959 24.0679 2.28442C24.9245 2.09407 25.8762 2.09407 26.8279 2.28442L23.6872 4.18787C23.3066 4.18787 22.9259 4.09269 22.5452 4.09269C21.9741 4.09269 21.4983 4.09269 21.1176 4.18787C21.2128 4.18787 21.2128 4.18787 21.3079 4.09269ZM17.6914 17.7975C17.6914 17.7023 17.7866 17.6072 17.8817 17.6072L19.4045 17.7023C21.2128 17.6072 23.1162 16.8458 23.3066 14.9423C23.3066 13.6099 22.3548 12.3727 21.1176 12.3727C20.4514 12.3727 19.5948 12.8486 18.7383 13.4196C18.1672 13.8003 17.6914 14.0858 17.4059 14.0858C17.2155 14.0858 17.0252 13.8955 17.0252 13.8003V13.7051L17.9769 12.3727L17.1204 11.8017C16.93 11.7065 16.6445 11.421 16.6445 11.3258C16.6445 11.2306 16.7397 11.1355 16.7397 11.0403C17.1204 10.6596 17.501 10.1837 17.8817 9.51752C18.1672 9.13683 18.2624 8.94649 18.6431 8.94649C19.0238 8.94649 19.4045 9.232 19.4045 9.70786C19.4045 9.99338 19.69 10.1837 20.0707 10.1837C20.4514 10.1837 20.6417 9.89821 20.8321 9.70786C20.8321 9.70786 21.6886 8.94649 21.2128 8.5658C20.7369 8.18511 18.6431 9.04166 19.2141 7.13821L19.4045 6.85269C19.5948 6.56718 20.6417 5.8058 22.6404 5.8058C23.021 5.8058 23.4017 5.8058 23.8776 5.90097H24.1631L28.541 3.23614C28.541 3.33131 28.6362 3.42649 28.6362 3.42649C28.8266 4.7589 28.0652 6.28166 26.7328 7.04304L26.1617 7.32855L26.5424 9.32718C25.4004 9.70786 24.639 10.5644 24.639 11.6113C24.639 11.992 24.7341 12.4679 24.8293 12.9437C24.9245 13.6099 25.1148 14.2761 25.1148 14.9423C25.1148 17.0361 22.2597 18.3686 19.8804 18.2734H19.7852C19.69 18.2734 18.1672 18.1782 17.7866 17.8927C17.6914 17.9879 17.6914 17.8927 17.6914 17.7975ZM6.84173 24.2692C7.22242 23.6982 7.9838 23.3175 8.93552 23.4127L9.6969 23.5079L9.98242 22.8417C10.0776 22.6513 10.1728 22.461 10.2679 22.3658C10.4583 22.1754 10.839 22.0803 11.2197 22.0803C12.2666 22.0803 13.599 22.8417 14.6459 23.9837C15.0266 24.3644 15.4072 24.9354 15.6928 25.4113C15.7879 25.5065 15.7879 25.6017 15.8831 25.6968C15.9783 25.792 16.0735 25.9823 16.0735 25.9823C16.0735 26.0775 16.6445 26.8389 16.6445 26.9341C17.0252 26.4582 17.4059 25.8872 17.6914 25.4113V25.3161C17.5962 25.1258 17.4059 24.8403 17.3107 24.6499L17.2155 24.5548C17.2155 24.5548 17.1204 24.4596 17.1204 24.3644C17.0252 24.1741 16.8348 23.8886 16.7397 23.7934L19.0238 20.1768C19.5948 20.272 20.0707 20.272 20.3562 20.272H20.4514C23.6872 20.272 27.0183 18.3686 27.0183 15.323V15.2279C27.0183 14.3713 26.8279 13.6099 26.7328 12.9437C26.6376 12.4679 26.5424 12.0872 26.5424 11.8968C26.5424 11.5161 27.0183 11.1355 27.6845 11.1355H28.7314L28.2555 8.47062C29.6831 7.42373 30.6348 5.61545 30.5397 3.99752C32.1576 5.23476 33.2045 7.32855 33.3948 9.51752C33.49 10.1837 33.2997 11.0403 33.1093 11.992L33.0141 12.3727C32.6335 13.8955 32.0624 15.5134 31.7769 16.2748L31.4914 16.941L32.1576 17.3217C33.2997 17.9879 34.061 18.4637 34.061 19.9865C34.061 21.7948 32.4431 23.1272 30.9204 23.4127L28.7314 23.7934L30.5397 25.0306C31.1107 25.4113 31.4914 26.0775 31.4914 26.7437C31.4914 27.8858 30.5397 28.7423 29.3976 28.7423H28.7314L28.541 29.3134C27.8748 31.4072 27.2086 32.4541 24.9245 32.7396V30.5506V29.5989L24.8293 27.6003L23.4017 29.0279C22.9259 29.5037 22.0693 29.8844 21.1176 30.0748V28.3617L11.1245 25.6968L7.60311 26.6486C6.84173 25.8872 6.65138 24.5548 6.84173 24.2692ZM3.98656 45.9686L11.2197 44.0651L18.4528 45.9686H3.98656ZM19.4045 44.4458L11.1245 42.2568L2.84449 44.4458V29.6941L11.1245 27.5051L19.4045 29.6941V44.4458ZM23.3066 41.5906C22.5452 42.6375 22.45 44.1603 23.021 45.9686H21.2128V31.883C21.879 31.7879 22.5452 31.5975 23.2114 31.312C23.2114 31.883 23.1162 32.4541 23.021 33.0251C23.021 33.2155 22.9259 33.3106 22.9259 33.501L22.7355 34.5479H23.7824C25.3052 34.5479 26.4472 34.2623 27.399 33.8817V39.7823C27.399 39.9727 27.3038 40.0679 27.1135 40.0679H26.8279C25.3052 39.9727 23.9728 40.5437 23.3066 41.5906ZM42.341 41.9713C41.6748 42.7327 41.1038 43.9699 41.4845 45.9686H30.73C31.8721 45.8734 32.7286 45.5879 33.2997 45.0168C33.9659 44.2554 34.061 43.3037 34.061 42.5423C34.061 42.4472 34.1562 42.2568 34.7272 41.9713L35.679 41.5906L35.1079 40.7341C34.1562 39.3065 34.6321 36.261 34.9176 34.5479H35.0128C38.6293 34.5479 41.0086 33.7865 43.4831 33.0251C44.1493 32.8348 44.8155 32.6444 45.4817 32.3589C46.1479 32.0734 46.2431 32.1686 47.1948 31.883L50.7162 37.6886V37.7837C51.0969 38.2596 51.0969 38.6403 50.4307 39.3065L48.7176 41.2099L45.8624 40.6389C44.6252 40.4486 43.1976 41.0196 42.341 41.9713ZM43.2928 45.9686C43.0072 44.7313 43.1024 43.7796 43.6735 43.1134C44.2445 42.4472 45.0059 42.352 45.6721 42.352L49.0031 42.923H49.5741L51.9535 40.3534C52.3341 39.8775 53.5714 38.4499 52.3341 36.6417L49.1935 31.5023C49.6693 31.4072 50.2404 31.4072 50.7162 31.4072C51.1921 31.4072 52.3341 31.4072 54.0472 32.3589C54.2376 32.8348 54.6183 33.501 54.9038 34.2623C55.57 35.5948 56.4266 37.3079 56.6169 37.9741C56.7121 38.1644 56.9024 38.8306 56.141 39.6872L50.1452 46.0637H43.2928V45.9686ZM63.85 45.9686H52.4293L57.2831 40.8292C58.2348 39.7823 58.6155 38.5451 58.1397 37.403C57.9493 36.7368 57.2831 35.4044 56.6169 33.9768C58.5204 34.8334 61.4707 35.6899 67.4666 36.1658C68.2279 36.261 68.4183 36.4513 68.5135 37.1175L68.799 39.6872L65.6583 40.3534C64.6114 40.5437 63.7548 41.2099 63.3741 42.2568C62.9935 43.3989 63.1838 44.7313 63.85 45.9686ZM65.0872 42.923C65.2776 42.4472 65.5631 42.1617 66.039 42.0665L70.7024 41.0196L70.3217 36.832V36.7368C70.2266 36.1658 69.8459 34.5479 67.6569 34.3575C59.2817 33.6913 57.3783 32.4541 55.2845 31.1217L55.1893 31.0265C53.0004 29.5989 50.8114 29.5989 50.621 29.5989C48.2417 29.5989 45.2914 30.5506 45.0059 30.6458C44.2445 30.8361 43.5783 31.1217 42.9121 31.312C40.2472 32.1686 38.0583 32.9299 34.2514 32.7396H33.5852L33.3948 33.4058C33.2997 33.8817 32.1576 38.1644 33.2045 40.8292C32.2528 41.5906 32.2528 42.352 32.2528 42.5423C32.2528 43.4941 32.0624 43.6844 31.9672 43.7796C31.4914 44.2555 30.0638 44.2555 28.8266 44.2555H28.3507L28.0652 44.6361C27.3038 45.683 25.6859 45.9686 24.639 45.683C24.1631 44.2555 24.1631 43.2086 24.639 42.5423C25.21 41.781 26.2569 41.6858 26.7328 41.6858H27.0183C28.1604 41.6858 29.0169 40.7341 29.0169 39.6872V32.1686C29.3976 31.6927 29.5879 31.0265 29.8735 30.3603C31.6817 30.0748 33.1093 28.552 33.1093 26.6486C33.1093 25.8872 32.919 25.221 32.5383 24.6499C34.2514 23.7934 35.679 22.1754 35.679 19.9865C35.679 17.7975 34.5369 16.7506 33.49 16.1796C33.7755 15.323 34.2514 13.8955 34.6321 12.3727L36.0597 7.13821C36.7259 5.04442 38.439 3.712 40.4376 3.712H66.3245C65.1824 5.23476 63.6597 5.99614 61.4707 5.99614H45.9576L45.101 7.70924H59.1866C58.0445 9.42235 56.4266 10.2789 54.1424 10.2789H43.959L43.1024 11.992H52.1438C51.0017 13.7051 49.479 14.4665 47.1948 14.4665H41.6748L40.8183 16.1796H46.6238C46.719 16.2748 46.8141 16.5603 46.8141 17.2265C46.8141 18.3686 45.8624 19.2251 44.7204 19.2251C44.3397 19.2251 43.959 19.1299 43.3879 18.8444C43.1024 18.7492 42.9121 18.6541 42.6266 18.5589L41.2941 19.7961C41.5797 19.8913 41.77 19.9865 42.0555 20.0817C43.1976 20.5575 43.8638 20.843 44.7204 20.843C45.7673 20.843 46.719 20.3672 47.4804 19.701C48.4321 19.7961 50.05 19.8913 51.6679 19.9865C53.5714 20.1768 55.2845 20.272 56.2362 20.3672C56.7121 20.3672 57.0928 20.3672 57.5686 20.4623C58.33 20.4623 59.0914 20.5575 59.7576 20.5575C63.279 26.2679 65.0872 27.0292 71.9397 27.8858C72.4155 28.7423 72.8914 29.6941 73.2721 30.6458V42.6375C72.9866 42.923 71.9397 43.3989 71.6542 43.4941L65.8486 45.8734C65.0872 44.8265 64.8017 43.7796 65.0872 42.923Z" fill="black"/>
<path d="M12.0762 32.3586L17.5962 33.7862V31.9779L12.0762 30.5503V32.3586ZM10.2679 30.5503L4.74792 31.9779V33.7862L10.2679 32.3586V30.5503ZM10.2679 34.1668L4.74792 35.5944V37.4027L10.2679 35.9751V34.1668ZM12.0762 35.9751L17.5962 37.4027V35.5944L12.0762 34.1668V35.9751ZM12.0762 39.5917L17.5962 41.0193V39.211L12.0762 37.7834V39.5917ZM10.2679 37.7834L4.74792 39.211V41.0193L10.2679 39.5917V37.7834Z" fill="black"/>
</g>
<defs>
<clipPath id="clip0_1125_5748">
<rect width="85.3538" height="69" fill="white" transform="translate(0.710938)"/>
</clipPath>
</defs>
</svg>
