<svg width="123" height="69" viewBox="0 0 123 69" fill="none" xmlns="http://www.w3.org/2000/svg">
<path d="M2.85571 34.501C2.85571 16.1628 30.0546 2.50732 61.4509 2.50732C92.8472 2.50732 120.06 16.1628 120.06 34.501C120.06 52.8449 92.8472 66.4668 61.4509 66.4668C30.0546 66.4668 2.85571 52.8449 2.85571 34.501Z" fill="white"/>
<path fill-rule="evenodd" clip-rule="evenodd" d="M61.4509 0.996094C94.6521 0.996094 121.599 16.0087 121.599 34.5009C121.599 52.9959 94.6521 68.0028 61.4509 68.0028C28.2637 68.0028 1.31665 52.9959 1.31665 34.5009C1.31665 16.0087 28.2637 0.996094 61.4509 0.996094ZM61.4509 4.0182C29.9427 4.0182 4.35275 17.7016 4.35275 34.5009C4.35275 51.3071 29.9427 64.9584 61.4509 64.9584C92.9591 64.9584 118.549 51.3071 118.549 34.5009C118.549 17.7016 92.9591 4.0182 61.4509 4.0182ZM50.8876 37.7174H39.051C39.1909 40.6304 40.8279 41.9806 43.2763 41.9806C45.0952 41.9806 46.3404 40.9564 46.6622 39.9253H50.5378C49.5444 43.4496 46.6622 45.081 43.1084 45.081C38.0716 45.081 34.9376 41.6154 34.9376 36.6653C34.9376 31.8705 38.2535 28.2188 43.1084 28.2188C48.565 28.2188 51.1954 32.7981 50.8876 37.7174ZM42.9965 31.2381C40.534 31.2381 39.2748 32.8765 39.079 34.9724H46.7601C46.4663 32.7352 45.5289 31.2381 42.9965 31.2381ZM102.137 37.7174H90.3008C90.4267 40.6304 92.0777 41.9806 94.5122 41.9806C96.345 41.9806 97.5902 40.9564 97.912 39.9253H101.788C100.794 43.4496 97.912 45.081 94.3583 45.081C89.3074 45.081 86.1874 41.6154 86.1874 36.6653C86.1874 31.8705 89.5033 28.2188 94.3583 28.2188C99.8148 28.2188 102.445 32.7981 102.137 37.7174ZM94.2323 31.2381C91.7839 31.2381 90.5247 32.8765 90.3148 34.9724H98.01C97.7162 32.7352 96.7787 31.2381 94.2323 31.2381ZM14.2306 44.6473H18.6238V35.1179H28.1098V44.6473H32.5031V22.5146H28.1098V31.5767H18.6238V22.5146H14.2306V44.6473ZM53.308 44.6473H57.4494V35.9951C57.4494 32.7464 58.5967 31.4158 60.9752 31.4158C63.0179 31.4158 63.9414 32.7156 63.9414 35.3445V44.6473H68.0688V34.8087C68.0688 30.8492 66.8935 28.2188 62.2064 28.2188C60.3596 28.2188 58.4288 29.0863 57.3235 30.8799H57.2256V28.6525H53.308V44.6473ZM71.5946 44.6473H75.722V35.9853L81.8221 44.6473H86.9569L80.2411 35.6719L86.1874 28.6525H81.2625L75.722 35.5488V22.5146H71.5946V44.6473ZM104.558 44.6473H108.685V22.5146H104.558V44.6473Z" fill="black"/>
</svg>
