<svg width="21" height="21" viewBox="0 0 21 21" fill="none" xmlns="http://www.w3.org/2000/svg">
<path d="M18.6875 0H1.39258C0.628906 0 0 0.673828 0 1.48242V18.6875C0 19.4961 0.628906 20.125 1.39258 20.125H18.6875C19.4512 20.125 20.125 19.4961 20.125 18.6875V1.48242C20.125 0.673828 19.4512 0 18.6875 0ZM6.06445 17.25H3.09961V7.68164H6.06445V17.25ZM4.58203 6.33398C3.59375 6.33398 2.83008 5.57031 2.83008 4.62695C2.83008 3.68359 3.59375 2.875 4.58203 2.875C5.52539 2.875 6.28906 3.68359 6.28906 4.62695C6.28906 5.57031 5.52539 6.33398 4.58203 6.33398ZM17.25 17.25H14.2402V12.5781C14.2402 11.5 14.2402 10.0625 12.7129 10.0625C11.1406 10.0625 10.916 11.2754 10.916 12.5332V17.25H7.95117V7.68164H10.7812V8.98438H10.8262C11.2305 8.2207 12.2188 7.41211 13.6562 7.41211C16.666 7.41211 17.25 9.43359 17.25 11.9941V17.25Z" fill="white"/>
</svg>
