<svg width="24" height="24" viewBox="0 0 24 24" fill="none" xmlns="http://www.w3.org/2000/svg">
<path d="M20.6875 2H3.39258C2.62891 2 2 2.67383 2 3.48242V20.6875C2 21.4961 2.62891 22.125 3.39258 22.125H20.6875C21.4512 22.125 22.125 21.4961 22.125 20.6875V3.48242C22.125 2.67383 21.4512 2 20.6875 2ZM8.06445 19.25H5.09961V9.68164H8.06445V19.25ZM6.58203 8.33398C5.59375 8.33398 4.83008 7.57031 4.83008 6.62695C4.83008 5.68359 5.59375 4.875 6.58203 4.875C7.52539 4.875 8.28906 5.68359 8.28906 6.62695C8.28906 7.57031 7.52539 8.33398 6.58203 8.33398ZM19.25 19.25H16.2402V14.5781C16.2402 13.5 16.2402 12.0625 14.7129 12.0625C13.1406 12.0625 12.916 13.2754 12.916 14.5332V19.25H9.95117V9.68164H12.7812V10.9844H12.8262C13.2305 10.2207 14.2188 9.41211 15.6562 9.41211C18.666 9.41211 19.25 11.4336 19.25 13.9941V19.25Z" fill="black"/>
</svg>
