<svg  fill="none" xmlns="http://www.w3.org/2000/svg">
<path fill-rule="evenodd" clip-rule="evenodd" d="M23.1957 22.536H13.7495V21.1772H16.5673V1.82277H13.7495V0.463975H22.8114C27.4225 0.463975 29.76 2.48559 29.76 6.19741C29.76 8.88185 28.5752 10.5721 25.8855 11.2017C29.1516 11.7651 30.7527 13.7868 30.7527 16.8357C30.7847 20.2161 28.7354 22.536 23.1957 22.536ZM22.5233 1.82277H18.1684V10.5058H22.7154C26.3338 10.5058 28.127 9.11384 28.127 6.32997C28.127 3.41355 26.5579 1.82277 22.5233 1.82277ZM23.0676 21.1772C27.2624 21.1772 29.1196 19.5533 29.1196 16.67C29.1196 13.4885 26.9422 11.8646 22.8755 11.8646H18.1684V21.1772H23.0676Z" fill="black"/>
<path fill-rule="evenodd" clip-rule="evenodd" d="M32.6099 21.1772V22.536H39.7826V21.1772H36.4204L38.5658 15.1787H47.916L50.0934 21.1772H46.5711V22.536H54V21.1772H51.8226L44.2336 0.463975H42.2803L34.7873 21.1772H32.6099ZM47.4357 13.8862H39.0141L43.2089 2.22047L47.4357 13.8862Z" fill="black"/>
</svg>
