<svg width="208" height="50" viewBox="0 0 208 50" fill="none" xmlns="http://www.w3.org/2000/svg">
<path d="M131.261 48.2066H145.909V44.8477H135.293V38.6932H144.897V35.3996H135.293V28.9566H145.584V25.687H131.261V48.2066Z" fill="black"/>
<path d="M123.713 48.2066H128.157L123.153 38.3738C125.243 37.699 127.687 36.0504 127.687 32.1626C127.687 29.3069 126.246 27.5708 124.242 26.6006C122.889 25.9532 121.328 25.687 119.798 25.687H111.23V48.2066H115.264V39.1998H119.325L123.713 48.2066ZM115.264 35.9337V28.5427H119.413C121.505 28.5427 123.534 29.4271 123.534 32.1644C123.534 35.0184 121.652 35.9337 119.325 35.9337H115.264Z" fill="black"/>
<path d="M97.247 48.2034H101.167V37.682C101.167 33.8784 99.4571 32.1697 95.9505 32.1697C93.385 32.1697 91.7364 33.5847 91.0272 35.0598H90.9688V24.978H87.0793V48.2034H90.9688V38.9785C90.9688 36.5899 92.1778 35.0289 94.5647 35.0289C95.5092 35.0289 96.2751 35.3243 96.7456 35.9717C97.2178 36.6482 97.247 37.682 97.247 38.7999V48.2034Z" fill="black"/>
<path d="M84.2201 37.7405C84.0433 33.9094 81.1549 32.1406 77.353 32.1406C72.6375 32.1406 69.7509 35.4411 69.7509 40.3919C69.7509 45.4611 72.4623 48.5847 77.2946 48.5847C81.1549 48.5847 84.0742 46.5807 84.3077 42.6912H80.5367C80.4783 44.0753 79.7416 45.8732 77.3238 45.8732C74.4938 45.8732 73.7588 43.2802 73.7588 40.3043C73.7588 37.239 74.7892 34.7645 77.353 34.7645C79.3278 34.7645 80.2413 36.1194 80.389 37.7405H84.2201Z" fill="black"/>
<path d="M63.2665 48.2034H67.1869V32.5234H65.4096H63.2665V48.2034Z" fill="black"/>
<path d="M63.2371 29.4295H67.2141V25.8027H65.2651H63.2371V29.4295Z" fill="black"/>
<path d="M55.7519 48.2031H59.6723V37.6817C59.6723 33.8781 57.9619 32.1694 54.4554 32.1694C51.8607 32.1694 50.1812 33.5552 49.3844 35.1454H49.3261V32.5232H45.5842V48.2031H49.4737V38.9782C49.4737 36.5896 50.6827 35.0286 53.0696 35.0286C54.0123 35.0286 54.7799 35.324 55.2505 35.9714C55.7227 36.6479 55.7519 37.6817 55.7519 38.7996V48.2031Z" fill="black"/>
<path d="M31.7318 32.5239H27.8423V43.193C27.8423 46.8764 29.611 48.5559 33.1176 48.5559C35.6522 48.5559 37.2441 47.1701 38.0099 45.6091H38.0683V48.2039H41.8411V32.5239H37.9206V41.0705C37.9206 44.0774 36.7735 45.6984 34.4158 45.6984C33.4421 45.6984 32.7037 45.4031 32.2624 44.7265C31.7919 44.0774 31.7318 43.0144 31.7318 41.8948V32.5239Z" fill="black"/>
<path d="M24.1988 48.2051V25.0811H18.0804L16.5984 29.2522L13.8423 37.1428C13.1777 39.1107 12.8789 40.3197 12.8789 40.3197H12.7913C12.7913 40.3197 12.4616 39.0815 11.8057 37.1462L9.02033 29.2299L7.56069 25.0811H1.42163V48.2051H5.13082V29.2333H5.2184C5.2184 29.2333 6.12509 32.1921 6.13196 32.2006L10.8183 45.7667H14.4725L19.346 31.5842C19.4696 31.2132 20.0912 29.2041 20.0912 29.2041H20.1788V48.2051H24.1988Z" fill="black"/>
<path d="M159.083 44.8442V48.1997H183.37L186.489 44.8442H159.083Z" fill="black"/>
<path d="M159.083 25.6812V28.9112H201.121L204.118 25.6812H159.083Z" fill="black"/>
<path d="M200.494 19.0366L196.974 15.7773H159.083V19.0366H200.494Z" fill="black"/>
<path d="M159.083 35.4028V38.6947H192.119L195.167 35.4028H159.083Z" fill="black"/>
<path d="M190.167 9.45588L186.576 6.13135H159.083V9.45588H190.167Z" fill="black"/>
<path d="M205.866 43.4808V40.1562H174.708L178.297 43.4808H205.866Z" fill="black"/>
<path d="M205.866 10.9199H172.837L169.78 14.2118H205.866V10.9199Z" fill="black"/>
<path d="M205.866 33.8384V30.5791H164.393L167.919 33.8384H205.866Z" fill="black"/>
<path d="M163.839 20.7026L160.857 23.931H205.865V20.7026H163.839Z" fill="black"/>
<path d="M178.476 4.76877H205.866V1.41504H181.579L178.476 4.76877Z" fill="black"/>
</svg>
