<svg width="182" height="46" viewBox="0 0 182 46" fill="none" xmlns="http://www.w3.org/2000/svg">
<g clip-path="url(#clip0_1125_5739)">
<path d="M51.9333 19.2187C53.8356 19.2187 55.3833 20.7675 55.3833 22.6687C55.3833 24.571 53.8356 26.1177 51.9333 26.1177C51.6748 26.1177 51.1311 26.0226 51.1204 26.0205C50.9453 25.981 50.1421 25.8165 49.5738 26.0429C48.8058 26.3548 48.2622 27.1121 48.2622 27.9944C48.2622 28.8382 48.8827 29.6873 49.5503 29.933C50.219 30.1787 51.1931 30.325 51.9333 30.325C56.1556 30.325 59.5906 26.8899 59.5906 22.6687C59.5906 18.4465 56.1556 15.0114 51.9333 15.0114C49.828 15.0114 47.7943 15.8947 46.3577 17.4264C46.3577 17.4264 32.8407 31.3162 29.6513 34.0581C26.8133 36.4977 23.3868 38.0336 19.3525 38.0336C15.2488 38.0336 11.3896 36.4357 8.48864 33.5336C5.58656 30.6316 3.98759 26.7724 3.98759 22.6687C3.98759 14.1964 10.8812 7.30492 19.3546 7.30492C20.991 7.30492 22.0997 7.60612 22.5344 7.62962C23.5929 7.68623 24.4549 6.81572 24.4549 5.80955C24.4549 4.92942 23.8108 4.15076 22.9552 3.99588C22.9552 3.99588 21.3018 3.65302 19.3503 3.65302C8.86569 3.65302 0.335693 12.183 0.335693 22.6687C0.335693 27.7476 2.31385 32.5232 5.90593 36.1153C9.49694 39.7074 14.2725 41.6866 19.3525 41.6866C24.2776 41.6866 28.9228 39.8174 32.4807 36.4133L49.4873 20.274C50.1752 19.6225 50.8588 19.2187 51.9333 19.2187ZM51.9311 33.6233C50.2008 33.6233 49.4638 33.2613 48.8667 33.2613C47.7067 33.2613 46.7636 34.2055 46.7636 35.3654C46.7636 36.2627 47.381 37.1118 48.1938 37.3564C49.0066 37.6021 50.4721 37.8317 51.9322 37.8317C60.2924 37.8317 67.0963 31.03 67.0963 22.6687C67.0963 14.3086 60.2945 7.50572 51.9333 7.50572C47.8435 7.50572 43.8807 9.19442 41.031 12.1456L25.7665 29.1041C24.049 30.8163 21.7718 31.7595 19.3535 31.7595C14.3409 31.7595 10.2639 27.6814 10.2639 22.6687C10.2639 17.6571 14.343 13.579 19.3578 13.579C20.5295 13.579 20.8948 13.8001 21.3947 13.8001C22.2663 13.8001 23.1689 13.0557 23.1689 11.9747C23.1689 11.1074 22.5643 10.3298 21.744 10.1525C21.0935 10.0115 20.1269 9.92607 19.3525 9.92607C12.3264 9.92607 6.61196 15.6426 6.61196 22.6687C6.61196 29.6948 12.3275 35.4114 19.3535 35.4114C25.1246 35.4114 28.3172 31.7157 28.8267 31.188L43.7301 15.4183C45.813 13.0642 48.8037 11.713 51.9333 11.713C57.9735 11.713 62.889 16.6285 62.889 22.6687C62.889 28.7089 57.9735 33.6233 51.9311 33.6233ZM67.9625 6.64054C63.6815 2.35846 57.9895 -0.00101471 51.9333 -0.00101471C44.7342 -0.00101471 37.8886 3.48318 33.63 9.30977C33.63 9.30977 22.1499 23.6653 21.5806 24.3873C21.0102 25.1094 20.176 25.4843 19.3535 25.4843C17.8005 25.4843 16.5369 24.2218 16.5369 22.6687C16.5369 21.1168 17.8005 19.8532 19.3535 19.8532C19.6451 19.8532 19.8662 19.8841 20.1023 19.8841C21.0892 19.8841 21.8903 19.0414 21.8903 18.0673C21.8903 17.3078 21.3648 16.1724 19.5789 16.1724C15.755 16.1724 12.8861 19.1023 12.8861 22.6687C12.8861 26.2341 15.7871 29.1351 19.3535 29.1373C21.1715 29.1373 22.8976 28.3725 24.1238 27.0331L37.3545 11.3627C40.8889 6.81572 46.2028 4.20737 51.9333 4.20737C56.8648 4.20737 61.5015 6.12785 64.9878 9.61419C68.4742 13.1016 70.3946 17.7383 70.3946 22.6687C70.3946 32.8479 62.1114 41.129 51.9301 41.129C49.043 41.129 48.0945 40.6024 47.3863 40.6024C46.1889 40.6024 45.2351 41.5445 45.2351 42.7226C45.2351 43.6017 45.7564 44.3483 46.6066 44.6933C47.334 44.9881 50.1538 45.3374 51.9333 45.3374C64.4324 45.3374 74.602 35.1678 74.602 22.6687C74.602 16.6136 72.2436 10.9216 67.9625 6.64054Z" fill="black"/>
<path d="M93.8034 38.2507C93.0696 38.2507 92.2578 38.4857 91.7986 39.1992H91.7793V38.427H90.8009V43.5507H91.7793V40.5984C91.7793 39.5901 92.5719 39.0721 93.4616 39.0721C94.5084 39.0721 94.9773 39.5026 94.9773 40.2556V43.5507H95.9557V40.0601C95.9557 38.7794 95.036 38.2507 93.8034 38.2507ZM101.343 42.4762L99.5841 38.427H98.4593L100.787 43.5507H101.862L104.171 38.427H103.075L101.343 42.4762ZM106.674 43.5507H107.653V38.4259H106.674V43.5507ZM106.674 37.5863H107.653V36.5108H106.674V37.5863ZM111.965 39.3658H111.945V38.427H110.967V43.5507H111.945V40.9499C111.945 39.8347 112.62 39.2686 113.589 39.2686C113.853 39.2686 114.039 39.3082 114.284 39.3658V38.3095C114.097 38.2603 113.969 38.2507 113.726 38.2507C113.08 38.2507 112.425 38.5541 111.965 39.3658ZM119.229 38.2507C117.234 38.2507 116.256 39.5122 116.256 40.9894C116.256 42.4655 117.234 43.728 119.229 43.728C121.224 43.728 122.203 42.4655 122.203 40.9894C122.203 39.5122 121.224 38.2507 119.229 38.2507ZM119.229 42.9066C117.812 42.9066 117.293 41.9186 117.293 40.9894C117.293 40.0601 117.812 39.0721 119.229 39.0721C120.647 39.0721 121.165 40.0601 121.165 40.9894C121.165 41.9186 120.647 42.9066 119.229 42.9066ZM128.128 38.2507C127.396 38.2507 126.584 38.4857 126.125 39.1992H126.105V38.427H125.127V43.5507H126.105V40.5984C126.105 39.5901 126.897 39.0721 127.788 39.0721C128.833 39.0721 129.302 39.5026 129.302 40.2556V43.5507H130.281V40.0601C130.281 38.7794 129.361 38.2507 128.128 38.2507ZM136.56 38.2507C135.827 38.2507 135.016 38.4857 134.556 39.1992H134.536V38.427H133.558V43.5507H134.536V40.5984C134.536 39.5901 135.329 39.0721 136.218 39.0721C137.264 39.0721 137.734 39.5026 137.734 40.2556V43.5507H138.712V40.0601C138.712 38.7794 137.793 38.2507 136.56 38.2507ZM157.118 38.2507C156.141 38.2507 155.514 38.6128 155.046 39.1992C154.635 38.5242 153.969 38.2507 153.304 38.2507C152.571 38.2507 151.76 38.4857 151.299 39.1992H151.281V38.427H150.302V43.5507H151.281V40.5984C151.281 39.5901 152.071 39.0721 152.961 39.0721C153.598 39.0721 154.195 39.3562 154.195 40.2951V43.5507H155.172V40.451C155.172 39.4929 155.965 39.0721 156.854 39.0721C157.49 39.0721 158.087 39.3562 158.087 40.2951V43.5507H159.064V40.0601C159.064 38.4953 157.637 38.2507 157.118 38.2507ZM173.695 38.2507C172.962 38.2507 172.151 38.4857 171.691 39.1992H171.67V38.427H170.693V43.5507H171.67V40.5984C171.67 39.5901 172.463 39.0721 173.353 39.0721C174.4 39.0721 174.869 39.5026 174.869 40.2556V43.5507H175.847V40.0601C175.847 38.7794 174.928 38.2507 173.695 38.2507ZM182 39.1896V38.427H180.532V36.8515H179.555V38.427H178.499V39.1896H179.555V42.5146C179.555 43.2581 179.946 43.728 180.904 43.728C181.305 43.728 181.668 43.7173 182 43.6586V42.8372C181.775 42.8767 181.55 42.9056 181.325 42.9056C180.827 42.9056 180.532 42.7592 180.532 42.3491V39.1896H182ZM85.031 38.2646C84.1006 38.2646 83.3305 38.5455 82.8061 39.0764C82.3329 39.556 82.0723 40.2342 82.0723 40.9894C82.0723 41.7435 82.3329 42.4228 82.8061 42.9024C83.3305 43.4332 84.1006 43.7141 85.031 43.7141C85.8919 43.7141 86.9546 43.3328 87.5154 42.2946H86.4697C86.0339 42.8522 85.3065 42.9205 84.9829 42.9205C84.5321 42.9205 84.0771 42.7678 83.7332 42.5008C83.3433 42.1996 83.118 41.7776 83.0816 41.2831L83.0806 41.2682H87.7952V41.1549C87.7952 39.024 86.3682 38.2646 85.031 38.2646ZM83.1083 40.5333L83.1115 40.5173C83.2504 39.6446 84.0024 39.0593 84.9829 39.0593C85.9538 39.0593 86.6438 39.6179 86.7859 40.5173L86.7891 40.5333H83.1083ZM144.586 38.2646C143.655 38.2646 142.886 38.5455 142.362 39.0764C141.888 39.556 141.627 40.2342 141.627 40.9894C141.627 41.7435 141.888 42.4228 142.362 42.9024C142.886 43.4332 143.655 43.7141 144.586 43.7141C145.447 43.7141 146.51 43.3328 147.07 42.2946H146.025C145.589 42.8522 144.862 42.9205 144.538 42.9205C144.087 42.9205 143.631 42.7678 143.288 42.5008C142.898 42.1996 142.673 41.7776 142.637 41.2831L142.635 41.2682H147.35V41.1549C147.35 39.024 145.922 38.2646 144.586 38.2646ZM142.663 40.5333L142.667 40.5173C142.805 39.6446 143.557 39.0593 144.538 39.0593C145.508 39.0593 146.199 39.6179 146.341 40.5173L146.344 40.5333H142.663ZM164.988 38.2646C164.057 38.2646 163.287 38.5455 162.763 39.0764C162.289 39.556 162.028 40.2342 162.028 40.9894C162.028 41.7435 162.289 42.4228 162.763 42.9024C163.287 43.4332 164.057 43.7141 164.988 43.7141C165.848 43.7141 166.912 43.3328 167.473 42.2946H166.426C165.99 42.8522 165.264 42.9205 164.939 42.9205C164.488 42.9205 164.033 42.7678 163.689 42.5008C163.299 42.1996 163.074 41.7776 163.038 41.2831L163.037 41.2682H167.751V41.1549C167.751 39.024 166.324 38.2646 164.988 38.2646ZM163.064 40.5333L163.068 40.5173C163.207 39.6446 163.96 39.0593 164.939 39.0593C165.91 39.0593 166.6 39.6179 166.743 40.5173L166.745 40.5333H163.064Z" fill="black"/>
<path d="M99.9893 22.2795L87.9751 17.8789C87.3716 17.6492 86.9422 17.0639 86.9422 16.3792C86.9422 15.4948 87.66 14.776 88.5455 14.776H101.586V10.0624H88.4119C84.9235 10.0624 82.0951 12.8908 82.0951 16.3792C82.0951 19.0741 83.7817 21.3738 86.1571 22.2827L98.1703 26.6823C98.7802 26.9024 99.2042 27.4973 99.2042 28.182C99.2042 29.0674 98.4864 29.7852 97.5999 29.7852H82.0737V34.4988H97.7345C101.223 34.4988 104.184 31.6704 104.184 28.182C104.184 25.4871 102.364 23.1874 99.9893 22.2795ZM166.474 29.7852C165.588 29.7852 164.87 29.0674 164.87 28.182C164.87 27.4973 165.294 26.9024 165.904 26.6823L177.918 22.2827C180.293 21.3738 181.979 19.0741 181.979 16.3792C181.979 12.8908 179.151 10.0624 175.662 10.0624H162.488V14.776H175.529C176.414 14.776 177.133 15.4948 177.133 16.3792C177.133 17.0639 176.703 17.6492 176.099 17.8789L164.085 22.2795C161.71 23.1874 159.89 25.4871 159.89 28.182C159.89 31.6704 162.851 34.4988 166.341 34.4988H181.999V29.7852H166.474ZM123.875 24.6518C123.888 28.3539 121.645 30.2648 118.208 30.2648C114.771 30.2648 112.528 28.3539 112.542 24.6518V10.0624H107.412V24.9947C107.412 30.457 111.364 34.8203 118.208 34.8203C125.054 34.8203 129.005 30.457 129.005 24.9947V10.0624H123.875V24.6518ZM145.496 9.74089C138.448 9.74089 132.875 15.356 132.875 22.2817C132.875 29.2052 138.448 34.8203 145.496 34.8203C149.859 34.8203 153.407 33.0109 155.977 29.9379L152.053 27.1416C150.266 29.2159 148.106 30.394 145.494 30.394C141.86 30.394 138.82 27.6778 138.06 24.043H157.732C157.807 23.4929 157.857 22.852 157.857 22.2817C157.857 15.3592 152.546 9.74089 145.496 9.74089ZM138.18 19.9895C139.102 16.6078 142.026 14.1351 145.492 14.1351C148.958 14.1351 151.884 16.6078 152.806 19.9895H138.18Z" fill="black"/>
</g>
<defs>
<clipPath id="clip0_1125_5739">
<rect width="181.664" height="45.3384" fill="white" transform="translate(0.335693)"/>
</clipPath>
</defs>
</svg>
